<?xml version="1.0" encoding="UTF-8"?>
<svg version="1.1" xmlns="http://www.w3.org/2000/svg" width="512" height="512">
<path d="M0 0 C168.96 0 337.92 0 512 0 C512 168.96 512 337.92 512 512 C343.04 512 174.08 512 0 512 C0 343.04 0 174.08 0 0 Z " fill="#010101" transform="translate(0,0)"/>
<path d="M0 0 C1.05058594 -0.01611328 2.10117188 -0.03222656 3.18359375 -0.04882812 C14.56934407 -0.05586505 23.48993114 3.00289886 33.45703125 8.203125 C37.04991289 9.51298172 38.84997128 9.345527 42.5 8.3125 C44.83740085 7.25559111 44.83740085 7.25559111 47.0625 5.9375 C63.12260416 -2.21064108 85.15583525 -2.50871142 102.16015625 3 C123.19973392 11.26818491 137.25127772 24.2752491 147.0625 44.8515625 C150.1601753 52.30955249 151.99848859 60.24406636 152.5 68.3125 C152.59667969 69.60220703 152.59667969 69.60220703 152.6953125 70.91796875 C154.1133682 107.45653719 135.50172527 149.74730619 112.5 177.3125 C111.97019531 178.00085938 111.44039062 178.68921875 110.89453125 179.3984375 C104.10237569 187.88443926 93.44250713 196.04159563 82.41967773 197.6081543 C80.24866257 197.75000969 78.11284718 197.77989428 75.9375 197.75 C74.77057617 197.73972778 74.77057617 197.73972778 73.58007812 197.72924805 C62.91243509 197.43908294 52.96867805 194.72355368 43.74609375 189.265625 C39.98602743 187.67004903 36.82140241 187.80152981 33.03515625 189.265625 C32.21917969 189.69359375 31.40320313 190.1215625 30.5625 190.5625 C17.6214277 196.69248162 1.34484228 200.73477209 -12.75 195.9375 C-42.02188772 181.80107641 -57.26507644 146.5916681 -67.3984375 117.75390625 C-70.09742925 109.72683465 -72.08847398 101.65737084 -73.5 93.3125 C-73.68949219 92.2709375 -73.87898437 91.229375 -74.07421875 90.15625 C-74.70533593 84.45882517 -74.7249587 78.79069687 -74.75 73.0625 C-74.770625 71.89847656 -74.79125 70.73445313 -74.8125 69.53515625 C-74.86048833 58.82176139 -72.71192022 49.75543293 -67.8125 40.25 C-67.29030884 39.22712891 -67.29030884 39.22712891 -66.75756836 38.18359375 C-57.77867841 21.12632767 -41.93552843 8.09038622 -23.5 2.3125 C-15.66946922 0.43664728 -8.02840926 -0.02462702 0 0 Z " fill="#010101" transform="translate(217.5,185.6875)"/>
<path d="M0 0 C0.8380719 -0.00622879 1.6761438 -0.01245758 2.53961182 -0.01887512 C3.44274109 -0.00966537 4.34587036 -0.00045563 5.27636719 0.0090332 C6.20995056 0.0085347 7.14353394 0.00803619 8.10540771 0.00752258 C10.08250046 0.00986394 12.05959613 0.01959606 14.03662109 0.03613281 C17.0478009 0.05961604 20.05808848 0.05670761 23.06933594 0.05004883 C24.99251826 0.05562957 26.91569686 0.06274193 28.83886719 0.0715332 C29.73389954 0.0706218 30.62893188 0.06971039 31.55108643 0.06877136 C43.45986679 0.20221117 54.37132174 4.60023266 62.94824219 12.99731445 C65.48124008 15.64165291 67.34917438 18.0138713 68.82324219 21.37231445 C72.14723959 19.86349536 74.8160746 17.91433315 77.69824219 15.68481445 C89.2857234 7.20992793 103.03441975 0.42426364 117.75683594 1.02075195 C122.61064766 1.84654223 126.41450153 3.91955065 129.82324219 7.43481445 C131.71266355 12.98498971 131.87285966 18.9731888 129.51074219 24.37231445 C128.95386719 25.03231445 128.39699219 25.69231445 127.82324219 26.37231445 C127.45714844 26.8621582 127.09105469 27.35200195 126.71386719 27.85668945 C123.82066787 30.17603106 120.41483499 30.73128109 116.88574219 31.62231445 C105.21967949 34.82729035 94.80951612 39.64230086 88.61621094 50.4855957 C87.10226878 53.41183726 85.86631999 56.24308104 84.82324219 59.37231445 C85.85964844 59.05262695 86.89605469 58.73293945 87.96386719 58.40356445 C108.40512853 53.34260247 131.33150852 57.07301249 149.51074219 67.30981445 C169.96900417 79.94932684 184.7676204 97.96697148 190.69189453 121.59082031 C195.12729375 142.62327667 191.3521684 165.21319488 184.82324219 185.37231445 C184.49163086 186.43361572 184.49163086 186.43361572 184.15332031 187.51635742 C174.16729781 219.24024597 157.20358395 255.1531377 126.77636719 271.89575195 C113.25302473 278.65742318 98.0193754 277.74745564 83.82324219 273.37231445 C80.97654393 272.41608762 78.16092433 271.41571917 75.35839844 270.3371582 C74.52179688 270.01875977 73.68519531 269.70036133 72.82324219 269.37231445 C71.84484375 268.95723633 70.86644531 268.5421582 69.85839844 268.11450195 C66.0609448 267.18590969 64.66569895 267.85474274 61.19824219 269.55981445 C55.18897267 272.30626764 49.26927706 273.98767997 42.82324219 275.37231445 C41.64568359 275.64881836 41.64568359 275.64881836 40.44433594 275.9309082 C26.2923519 278.31417824 12.59461788 275.81082311 0.70214844 267.6574707 C-10.74292895 258.57284347 -19.57112723 247.78497939 -27.17675781 235.37231445 C-27.60972168 234.6659082 -28.04268555 233.95950195 -28.48876953 233.23168945 C-35.38965704 221.78254822 -40.59438286 209.91003582 -45.17675781 197.37231445 C-45.65072998 196.10581055 -45.65072998 196.10581055 -46.13427734 194.8137207 C-56.64989494 166.48461455 -62.43059861 133.59723418 -49.49145508 105.21118164 C-45.73228505 97.37599072 -41.09273685 90.76769179 -35.17675781 84.37231445 C-34.49097656 83.59500977 -33.80519531 82.81770508 -33.09863281 82.0168457 C-24.46653615 72.72934911 -13.0176075 65.79029952 -1.17675781 61.37231445 C-0.16484375 60.98043945 0.84707031 60.58856445 1.88964844 60.18481445 C17.18079776 55.17474505 35.27993428 55.73730325 50.82324219 59.37231445 C51.81324219 56.40231445 52.80324219 53.43231445 53.82324219 50.37231445 C53.13399658 50.39849854 52.44475098 50.42468262 51.73461914 50.45166016 C26.02349205 51.29989328 26.02349205 51.29989328 15.82324219 45.37231445 C14.48132813 44.61047852 14.48132813 44.61047852 13.11230469 43.83325195 C2.97864815 37.41222634 -2.94009016 28.81951193 -6.17675781 17.37231445 C-6.36882812 16.71102539 -6.56089844 16.04973633 -6.75878906 15.3684082 C-7.25727995 12.98776483 -7.38274638 10.74144618 -7.42675781 8.30981445 C-7.45253906 7.45258789 -7.47832031 6.59536133 -7.50488281 5.7121582 C-6.8754501 1.22370353 -4.26406234 -0.00364604 0 0 Z M-28.47753906 92.7355957 C-32.60616015 97.50555599 -35.62296406 102.72392962 -38.48925781 108.30981445 C-38.81514893 108.94169678 -39.14104004 109.5735791 -39.47680664 110.22460938 C-44.28982567 120.0998774 -45.6865537 129.57884788 -45.55175781 140.49731445 C-45.54233154 141.68365479 -45.53290527 142.86999512 -45.52319336 144.09228516 C-45.26352079 159.29916579 -42.21052925 173.05325396 -37.17675781 187.37231445 C-36.90234863 188.16621582 -36.62793945 188.96011719 -36.34521484 189.77807617 C-29.6119275 209.04741203 -20.90978322 227.32578489 -8.17675781 243.37231445 C-7.46132812 244.28239258 -6.74589844 245.1924707 -6.00878906 246.13012695 C-0.29327972 252.9387665 6.28484961 257.78541063 13.82324219 262.37231445 C14.48710937 262.77708008 15.15097656 263.1818457 15.83496094 263.59887695 C25.94616447 268.46134337 40.14728214 265.62712886 50.37402344 262.5949707 C54.5291411 261.12209207 58.45565483 259.37237607 62.35839844 257.32543945 C66.1446446 255.86134427 69.30926962 255.72986348 73.06933594 257.32543945 C73.7925 257.7534082 74.51566406 258.18137695 75.26074219 258.62231445 C87.99011818 265.28104914 102.59142739 267.51602104 116.72949219 264.81762695 C138.92395378 257.25133323 153.12629392 232.44974165 162.82324219 212.74731445 C176.82792823 183.15975494 188.00931063 148.34376109 177.75683594 116.0090332 C170.26291427 96.94034144 156.56127192 82.343485 138.00683594 73.69262695 C121.25748626 66.74627089 99.09803352 64.74305279 81.82324219 71.37231445 C78.67154059 72.90619344 75.60383396 74.49491731 72.57714844 76.26293945 C69.10208594 77.66282278 67.40842103 77.37892236 63.82324219 76.37231445 C60.59212226 74.98175719 57.47991798 73.41938339 54.33496094 71.8449707 C25.25525823 59.65025666 -7.62115152 71.31265095 -28.47753906 92.7355957 Z " fill="#F9F9F9" transform="translate(188.1767578125,117.627685546875)"/>
<path d="M0 0 C1.54153496 -0.01475121 1.54153496 -0.01475121 3.11421204 -0.02980042 C4.2359079 -0.02013245 5.35760376 -0.01046448 6.51329041 -0.00050354 C7.69899124 -0.00590652 8.88469208 -0.01130951 10.10632324 -0.01687622 C13.35435313 -0.02723881 16.60172124 -0.01966347 19.84970784 -0.00316501 C23.24892033 0.01069065 26.64810223 0.00422496 30.04733276 0.0007019 C35.75449661 -0.00199946 41.46145006 0.01147008 47.16856384 0.03465271 C53.76814957 0.06127492 60.3673838 0.06300535 66.96700484 0.05126435 C73.31554735 0.04048892 79.66396263 0.04667089 86.01249504 0.06081963 C88.7146092 0.06658025 91.41663027 0.06649623 94.1187458 0.06175423 C97.88980154 0.05885399 101.66027665 0.07529264 105.43125916 0.09715271 C107.11683929 0.09040024 107.11683929 0.09040024 108.83647156 0.08351135 C109.86134171 0.09341599 110.88621185 0.10332062 111.94213867 0.11352539 C112.83384797 0.11595529 113.72555727 0.11838518 114.64428806 0.12088871 C116.90757751 0.50120544 116.90757751 0.50120544 118.69368744 1.71509552 C120.3028919 4.08286845 120.28747732 5.61149443 120.29525757 8.46664429 C120.3051622 9.49151443 120.31506683 10.51638458 120.32527161 11.5723114 C120.32076996 12.69603149 120.31626831 13.81975159 120.31163025 14.9775238 C120.3184935 16.16147232 120.32535675 17.34542084 120.33242798 18.56524658 C120.34760853 21.8132806 120.34918567 25.06095563 120.34348559 28.30901027 C120.34039766 31.02029672 120.34648181 33.73153107 120.35252434 36.44281012 C120.36657764 42.83919096 120.36500187 49.23543826 120.35362244 55.63182068 C120.34214192 62.23084554 120.3562135 68.82946397 120.38301891 75.42843527 C120.40517091 81.09393329 120.41181442 86.75930368 120.4059425 92.42484194 C120.40257026 95.8086864 120.40500515 99.19227036 120.42219353 102.57607841 C120.43702721 106.34952631 120.42648116 110.12207335 120.4092865 113.89549255 C120.42378845 115.57803635 120.42378845 115.57803635 120.43858337 117.29457092 C120.42383217 118.83610588 120.42383217 118.83610588 120.40878296 120.40878296 C120.40857368 121.30086928 120.40836439 122.19295561 120.40814877 123.11207485 C119.7373218 126.31380334 118.47464377 127.53112604 115.90757751 129.50120544 C112.34507751 129.50120544 112.34507751 129.50120544 108.90757751 128.50120544 C106.20125335 125.66832237 105.5335441 123.7189622 105.54681396 119.84416199 C105.54268997 118.91310638 105.53856598 117.98205078 105.53431702 117.02278137 C105.54510284 116.00858124 105.55588867 114.9943811 105.56700134 113.94944763 C105.56634422 112.33923233 105.56634422 112.33923233 105.56567383 110.69648743 C105.56776452 107.14683369 105.5911095 103.59765172 105.61460876 100.04808044 C105.6202037 97.58757282 105.62447428 95.12706185 105.62747192 92.66654968 C105.63892867 86.18918132 105.66840328 79.71201462 105.70158386 73.23472595 C105.7322667 66.62566354 105.74597346 60.01656855 105.76109314 53.40745544 C105.79327193 40.43861938 105.84390221 27.46992314 105.90757751 14.50120544 C105.06412513 14.50811889 105.06412513 14.50811889 104.20363331 14.515172 C90.51584002 14.62563752 76.82812492 14.70803582 63.13998127 14.7602663 C56.52043373 14.78637305 49.90120762 14.82179209 43.28184509 14.87840271 C36.8951927 14.93268205 30.50884971 14.96261786 24.12198448 14.97559166 C21.68386653 14.98483871 19.24576574 15.00289586 16.80777931 15.02985573 C13.39576592 15.0660901 9.98503518 15.0711529 6.57286072 15.0688324 C5.05695343 15.09579697 5.05695343 15.09579697 3.51042175 15.12330627 C-1.2042558 15.08855247 -3.37210721 15.04759572 -7.22384644 12.12588501 C-9.09242249 9.50120544 -9.09242249 9.50120544 -9.65492249 6.93870544 C-8.45025662 1.71848669 -5.06706091 0.00118873 0 0 Z " fill="#FAFAFA" transform="translate(314.09242248535156,77.49879455566406)"/>
<path d="M0 0 C2.4871871 2.00869818 3.83607028 3.21759488 4.50057125 6.38913059 C4.50078053 7.28121692 4.50098982 8.17330324 4.50120544 9.09242249 C4.51103958 10.12011246 4.52087372 11.14780243 4.53100586 12.20663452 C4.52133789 13.32833038 4.51166992 14.45002625 4.50170898 15.60571289 C4.50981346 17.38426414 4.50981346 17.38426414 4.51808167 19.19874573 C4.52844426 22.44677561 4.52086891 25.69414373 4.50437045 28.94213033 C4.4905148 32.34134282 4.49698049 35.74052471 4.50050354 39.13975525 C4.50320491 44.8469191 4.48973536 50.55387254 4.46655273 56.26098633 C4.43993052 62.86057206 4.4382001 69.45980628 4.4499411 76.05942732 C4.46071652 82.40796984 4.45453455 88.75638512 4.44038582 95.10491753 C4.43462519 97.80703168 4.43470922 100.50905276 4.43945122 103.21116829 C4.44235145 106.98222403 4.42591281 110.75269914 4.40405273 114.52368164 C4.41080521 116.20926178 4.41080521 116.20926178 4.41769409 117.92889404 C4.40778946 118.95376419 4.39788483 119.97863434 4.38768005 121.03456116 C4.38403521 122.37212511 4.38403521 122.37212511 4.38031673 123.73671055 C4 126 4 126 2.78610992 127.78610992 C0.418337 129.39531438 -1.11028899 129.37989981 -3.96543884 129.38768005 C-4.99030899 129.39758469 -6.01517914 129.40748932 -7.07110596 129.41769409 C-8.19482605 129.41319244 -9.31854614 129.4086908 -10.47631836 129.40405273 C-11.66026688 129.41091599 -12.84421539 129.41777924 -14.06404114 129.42485046 C-17.31207516 129.44003102 -20.55975019 129.44160816 -23.80780482 129.43590808 C-26.51909128 129.43282014 -29.23032563 129.4389043 -31.94160467 129.44494683 C-38.33798551 129.45900013 -44.73423282 129.45742435 -51.13061523 129.44604492 C-57.7296401 129.43456441 -64.32825853 129.44863599 -70.92722982 129.4754414 C-76.59272784 129.4975934 -82.25809824 129.5042369 -87.9236365 129.49836498 C-91.30748096 129.49499274 -94.69106491 129.49742764 -98.07487297 129.51461601 C-101.84832087 129.52944969 -105.62086791 129.51890365 -109.39428711 129.50170898 C-110.51598297 129.51137695 -111.63767883 129.52104492 -112.79336548 129.53100586 C-114.33490044 129.51625465 -114.33490044 129.51625465 -115.90757751 129.50120544 C-116.79966384 129.50099616 -117.69175016 129.50078688 -118.61086941 129.50057125 C-121.81259789 128.82974428 -123.0299206 127.56706625 -125 125 C-125 121.4375 -125 121.4375 -124 118 C-121.16711693 115.29367583 -119.21775675 114.62596659 -115.34295654 114.63923645 C-114.41190094 114.63511246 -113.48084534 114.63098846 -112.52157593 114.6267395 C-111.50737579 114.63752533 -110.49317566 114.64831116 -109.44824219 114.65942383 C-108.37476532 114.65898575 -107.30128845 114.65854767 -106.19528198 114.65809631 C-102.64562824 114.66018701 -99.09644628 114.68353199 -95.546875 114.70703125 C-93.08636737 114.71262619 -90.6258564 114.71689677 -88.16534424 114.71989441 C-81.68797587 114.73135115 -75.21080917 114.76082576 -68.73352051 114.79400635 C-62.12445809 114.82468918 -55.5153631 114.83839594 -48.90625 114.85351562 C-35.93741394 114.88569442 -22.96871769 114.9363247 -10 115 C-10.00460896 114.43162289 -10.00921793 113.86324577 -10.01396656 113.27764511 C-10.12438406 99.44833316 -10.20680711 85.61909843 -10.25906086 71.78944016 C-10.28517845 65.10147881 -10.31999477 58.41384525 -10.37719727 51.72607422 C-10.43143813 45.27458821 -10.46140425 38.82340812 -10.47438622 32.37171173 C-10.4836402 29.90764803 -10.50171067 27.44360147 -10.52865028 24.97966766 C-10.56483356 21.53392571 -10.5699496 18.08945538 -10.56762695 14.64355469 C-10.58560333 13.62000381 -10.60357971 12.59645294 -10.62210083 11.54188538 C-10.57156008 4.633798 -10.57156008 4.633798 -7.62467957 1.36602783 C-4.67677865 -0.1682222 -3.25873181 -0.66845781 0 0 Z " fill="#FBFBFB" transform="translate(430,305)"/>
<path d="M0 0 C3.82963746 1.11407635 4.48388203 1.67067995 6.4375 5 C6.80664349 7.21010208 6.80664349 7.21010208 6.79826355 9.65704346 C6.80238754 10.58809906 6.80651154 11.51915466 6.8107605 12.47842407 C6.79997467 13.49262421 6.78918884 14.50682434 6.77807617 15.55175781 C6.77851425 16.62523468 6.77895233 17.69871155 6.77940369 18.80471802 C6.77731299 22.35437176 6.75396801 25.90355372 6.73046875 29.453125 C6.72487381 31.91363263 6.72060323 34.3741436 6.71760559 36.83465576 C6.70614885 43.31202413 6.67667424 49.78919083 6.64349365 56.26647949 C6.61281082 62.87554191 6.59910406 69.4846369 6.58398438 76.09375 C6.55180558 89.06258606 6.5011753 102.03128231 6.4375 115 C6.99980159 114.99539104 7.56210318 114.99078207 8.14144421 114.98603344 C21.82923749 114.87556793 35.51695259 114.79316963 49.20509624 114.74093914 C55.82464379 114.7148324 62.44386989 114.67941335 69.06323242 114.62280273 C75.44988482 114.56852339 81.8362278 114.53858758 88.22309303 114.52561378 C90.66121098 114.51636673 93.09931178 114.49830959 95.5372982 114.47134972 C98.94931159 114.43511535 102.36004233 114.43005255 105.7722168 114.43237305 C106.78282166 114.41439667 107.79342651 114.39642029 108.83465576 114.37789917 C113.54933332 114.41265297 115.71718473 114.45360973 119.56892395 117.37532043 C121.4375 120 121.4375 120 122 122.5625 C121.25416172 125.79446589 119.9806463 126.90701988 117.4375 129 C115.04836941 129.50057125 115.04836941 129.50057125 112.34507751 129.50120544 C111.31738754 129.51103958 110.28969757 129.52087372 109.23086548 129.53100586 C108.10916962 129.52133789 106.98747375 129.51166992 105.83178711 129.50170898 C104.05323586 129.50981346 104.05323586 129.50981346 102.23875427 129.51808167 C98.99072439 129.52844426 95.74335627 129.52086891 92.49536967 129.50437045 C89.09615718 129.4905148 85.69697529 129.49698049 82.29774475 129.50050354 C76.5905809 129.50320491 70.88362746 129.48973536 65.17651367 129.46655273 C58.57692794 129.43993052 51.97769372 129.4382001 45.37807268 129.4499411 C39.02953016 129.46071652 32.68111488 129.45453455 26.33258247 129.44038582 C23.63046832 129.43462519 20.92844724 129.43470922 18.22633171 129.43945122 C14.45527597 129.44235145 10.68480086 129.42591281 6.91381836 129.40405273 C5.22823822 129.41080521 5.22823822 129.41080521 3.50860596 129.41769409 C2.48373581 129.40778946 1.45886566 129.39788483 0.40293884 129.38768005 C-0.48877046 129.38525016 -1.38047976 129.38282026 -2.29921055 129.38031673 C-4.5625 129 -4.5625 129 -6.34860992 127.78610992 C-7.95781438 125.418337 -7.94239981 123.88971101 -7.95018005 121.03456116 C-7.96008469 120.00969101 -7.96998932 118.98482086 -7.98019409 117.92889404 C-7.97569244 116.80517395 -7.9711908 115.68145386 -7.96655273 114.52368164 C-7.97341599 113.33973312 -7.98027924 112.15578461 -7.98735046 110.93595886 C-8.00253102 107.68792484 -8.00410816 104.44024981 -7.99840808 101.19219518 C-7.99532014 98.48090872 -8.0014043 95.76967437 -8.00744683 93.05839533 C-8.02150013 86.66201449 -8.01992435 80.26576718 -8.00854492 73.86938477 C-7.99706441 67.2703599 -8.01113599 60.67174147 -8.0379414 54.07277018 C-8.0600934 48.40727216 -8.0667369 42.74190176 -8.06086498 37.0763635 C-8.05749274 33.69251904 -8.05992764 30.30893509 -8.07711601 26.92512703 C-8.09194969 23.15167913 -8.08140365 19.37913209 -8.06420898 15.60571289 C-8.07387695 14.48401703 -8.08354492 13.36232117 -8.09350586 12.20663452 C-8.08367172 11.17894455 -8.07383759 10.15125458 -8.06370544 9.09242249 C-8.06349616 8.20033616 -8.06328688 7.30824984 -8.06307125 6.38913059 C-7.07279261 1.66272055 -4.67616447 0 0 0 Z " fill="#FBFBFB" transform="translate(85.5625,305)"/>
<path d="M0 0 C1.53730522 -0.01485695 1.53730522 -0.01485695 3.10566711 -0.03001404 C4.22938721 -0.02551239 5.3531073 -0.02101074 6.51087952 -0.01637268 C7.69482803 -0.02323593 8.87877655 -0.03009918 10.09860229 -0.03717041 C13.34663632 -0.05235096 16.59431135 -0.05392811 19.84236598 -0.04822803 C22.55365244 -0.04514009 25.26488678 -0.05122425 27.97616583 -0.05726677 C34.37254667 -0.07132007 40.76879398 -0.0697443 47.16517639 -0.05836487 C53.76420126 -0.04688435 60.36281968 -0.06095594 66.96179098 -0.08776134 C72.627289 -0.10991335 78.2926594 -0.11655685 83.95819765 -0.11068493 C87.34204212 -0.10731269 90.72562607 -0.10974758 94.10943413 -0.12693596 C97.88288203 -0.14176964 101.65542907 -0.13122359 105.42884827 -0.11402893 C106.55054413 -0.1236969 107.67223999 -0.13336487 108.82792664 -0.14332581 C109.85561661 -0.13349167 110.88330658 -0.12365753 111.94213867 -0.11352539 C112.834225 -0.11331611 113.72631132 -0.11310682 114.64543056 -0.1128912 C117.81675866 0.55156627 119.02330635 1.90299338 121.03456116 4.38768005 C121.59706116 6.82518005 121.59706116 6.82518005 121.03456116 9.38768005 C118.99224074 12.25640817 117.36411736 14.11701542 113.81819725 14.83887672 C110.9901748 15.00460456 108.2018208 15.00569155 105.36927795 14.95530701 C103.75884361 14.95640221 103.75884361 14.95640221 102.11587524 14.95751953 C98.57132747 14.95403937 95.02809779 14.91515527 91.48377991 14.8759613 C89.0247062 14.86663477 86.56562319 14.85951791 84.10653687 14.85452271 C77.63723559 14.83544067 71.16849644 14.78632816 64.69941711 14.73100281 C58.09701644 14.67983712 51.49452486 14.65701431 44.89198303 14.63182068 C31.93926938 14.57821169 18.98694518 14.49384565 6.03456116 14.38768005 C6.0414746 15.23113244 6.0414746 15.23113244 6.04852772 16.09162426 C6.15899323 29.77941754 6.24139153 43.46713264 6.29362202 57.1552763 C6.31972876 63.77482384 6.3551478 70.39404994 6.41175842 77.01341248 C6.46603776 83.40006487 6.49597357 89.78640786 6.50894737 96.17327309 C6.51819442 98.61139104 6.53625157 101.04949183 6.56321144 103.48747826 C6.59944581 106.89949165 6.60450861 110.31022239 6.60218811 113.72239685 C6.62915268 115.23830414 6.62915268 115.23830414 6.65666199 116.78483582 C6.62200927 121.48580013 6.55698098 123.68077056 3.69439697 127.55426025 C1.03456116 129.38768005 1.03456116 129.38768005 -2.09043884 129.38768005 C-5.04012582 128.36170197 -6.10028017 127.81363796 -7.96543884 125.38768005 C-8.34296227 123.12159729 -8.34296227 123.12159729 -8.34638977 120.41551208 C-8.35484924 119.38919678 -8.36330872 118.36288147 -8.37202454 117.3054657 C-8.36595184 116.18017456 -8.35987915 115.05488342 -8.35362244 113.89549255 C-8.35887939 112.70993774 -8.36413635 111.52438293 -8.36955261 110.30290222 C-8.38050416 107.05079241 -8.37792297 103.79904808 -8.36841536 100.54694366 C-8.36082478 97.14505235 -8.36786269 93.7431856 -8.37257385 90.34129333 C-8.37803318 84.62819529 -8.37083522 78.91521356 -8.35655212 73.20213318 C-8.34022516 66.59519441 -8.34551355 59.98853337 -8.36203134 53.38160133 C-8.37564124 47.71102838 -8.37756834 42.04053907 -8.36971533 36.36995506 C-8.36503604 32.98228274 -8.36442087 29.59474099 -8.3743248 26.20707703 C-8.38191712 22.43114769 -8.37036539 18.65575665 -8.35362244 14.87986755 C-8.35969513 13.75457642 -8.36576782 12.62928528 -8.37202454 11.46989441 C-8.36356506 10.4435791 -8.35510559 9.41726379 -8.34638977 8.35984802 C-8.34525869 7.4668399 -8.34412762 6.57383179 -8.34296227 5.65376282 C-7.96543884 3.38768005 -7.96543884 3.38768005 -6.75196934 1.60114956 C-4.38389951 -0.00732034 -2.85501581 0.00777988 0 0 Z " fill="#FAFAFA" transform="translate(85.96543884277344,77.61231994628906)"/>
<path d="M0 0 C4.87042613 -0.17551433 9.73893955 -0.30119596 14.61181641 -0.38452148 C16.26253386 -0.41931901 17.91304239 -0.46677736 19.56298828 -0.52807617 C32.29648586 -0.98864949 42.47892383 0.32933123 52.40966797 9.13720703 C55.67472719 12.55300128 58.59105287 16.1948712 59 21 C57.9556895 24.00939771 56.50816841 26.03387003 54 28 C49.75488369 28.96977289 45.6448945 28.79451795 41.3125 28.625 C40.17876953 28.61855469 39.04503906 28.61210937 37.87695312 28.60546875 C25.80724386 28.36894419 17.04664044 25.80196543 8.3125 17.37109375 C3.91201483 12.62957098 0 6.62300099 0 0 Z " fill="#030303" transform="translate(192,129)"/>
<path d="M0 0 C16.62986728 0.08495462 30.75433981 5.43008073 43.18359375 16.703125 C43.94671875 17.54875 44.70984375 18.394375 45.49609375 19.265625 C46.02589844 19.7915625 46.55570312 20.3175 47.1015625 20.859375 C57.40099047 31.59078781 62.86965522 46.43264579 62.796875 61.20703125 C62.49609375 63.265625 62.49609375 63.265625 60.49609375 66.265625 C56.99609375 66.640625 56.99609375 66.640625 53.49609375 66.265625 C51.28696533 62.95193237 51.04691718 61.10506178 50.55859375 57.203125 C48.55696572 43.5101696 43.76138037 31.07457093 32.49609375 22.265625 C21.95373092 15.27621318 13.26433811 12.09185515 0.7890625 10.890625 C-2.50390625 10.265625 -2.50390625 10.265625 -4.46484375 8.86328125 C-5.50390625 7.265625 -5.50390625 7.265625 -5.31640625 4.703125 C-4.2314377 1.44821934 -3.47549236 0.36869498 0 0 Z " fill="#F9F9F9" transform="translate(295.50390625,196.734375)"/>
<path d="M0 0 C0.66 0.66 1.32 1.32 2 2 C1.625 4.625 1.625 4.625 1 7 C-0.02738281 7.29132813 -1.05476563 7.58265625 -2.11328125 7.8828125 C-17.22438158 12.29433199 -31.47176956 18.30696074 -39.5 32.75 C-42.46931861 38.65411026 -44.21684063 43.41000792 -44.4609375 50.01171875 C-45 52 -45 52 -46.83984375 53.2890625 C-49.8225899 54.27072579 -51.98976753 53.7358346 -55 53 C-56 52 -56 52 -56.3125 48.125 C-56.08001825 35.84221427 -48.85433243 25.03033293 -40.53125 16.45703125 C-29.63094768 6.91926672 -14.79063695 -1.02004393 0 0 Z " fill="#080808" transform="translate(307,130)"/>
</svg>
